<?xml version="1.0" encoding="utf-8"?>
<!-- Svg Vector Icons : http://www.onlinewebfonts.com/icon -->
<!DOCTYPE svg PUBLIC "-//W3C//DTD SVG 1.1//EN" "http://www.w3.org/Graphics/SVG/1.1/DTD/svg11.dtd">
<svg version="1.1" xmlns="http://www.w3.org/2000/svg" xmlns:xlink="http://www.w3.org/1999/xlink" x="0px" y="0px" viewBox="0 0 1000 1000" enable-background="new 0 0 1000 1000" xml:space="preserve">
<metadata> Svg Vector Icons : http://www.onlinewebfonts.com/icon </metadata>
<g><path d="M938.8,918.8c-6-157.2-94.7-293.3-223.8-365.9c61.1-57.3,99.2-138.7,99.2-229C814.3,150.5,673.7,10,500.4,10C327,10,186.4,150.5,186.4,323.9c0,90.2,38.1,171.5,99,228.7C156.1,625.2,67.2,761.4,61.2,918.8h1c0,0.4,0,0.8,0,1.2c0,38.7,31.3,70,70,70c38.6,0,70-31.3,70-70c0-2.4-0.1-4.7-0.4-7c11.2-148.2,130-266.3,278.6-275.9c6.6,0.4,13.3,0.6,20,0.6c6.6,0,13.1-0.2,19.6-0.6C669.4,647,788.5,766.5,798.4,916c-0.1,1.4-0.1,2.7-0.1,4.1c0,38.7,31.3,70,70,70c38.6,0,70-31.3,70-70c0-0.4,0-0.8,0-1.2H938.8L938.8,918.8z M528.6,497.6c-9.5-0.6-19-0.9-28.6-0.9c-9.8,0-19.5,0.3-29.2,1c-84-13.7-148.1-86.6-148.1-174.5c0-97.7,79.2-176.9,176.9-176.9c97.7,0,176.9,79.2,176.9,176.9C676.5,411,612.5,483.8,528.6,497.6z"/></g>
</svg>