<?xml version="1.0" encoding="utf-8"?>
<!-- Svg Vector Icons : http://www.onlinewebfonts.com/icon -->
<!DOCTYPE svg PUBLIC "-//W3C//DTD SVG 1.1//EN" "http://www.w3.org/Graphics/SVG/1.1/DTD/svg11.dtd">
<svg version="1.1" xmlns="http://www.w3.org/2000/svg" xmlns:xlink="http://www.w3.org/1999/xlink" x="0px" y="0px" viewBox="0 0 1000 1000" enable-background="new 0 0 1000 1000" xml:space="preserve">
<metadata> Svg Vector Icons : http://www.onlinewebfonts.com/icon </metadata>
<g><g><path d="M713.9,598.9h165.6c9.2-42.9,13.8-75.9,13.8-98.9s-4.6-56-13.8-98.9H713.9c4.6,32.2,6.9,65.2,6.9,98.9C720.8,533.7,718.5,566.7,713.9,598.9z M626.5,870.4c93.6-30.7,164.9-89,213.9-174.8H695.5C680.2,756.9,657.2,815.2,626.5,870.4z M615,598.9c4.6-32.2,6.9-65.2,6.9-98.9c0-33.7-2.3-66.7-6.9-98.9H385c-4.6,32.2-6.9,65.2-6.9,98.9c0,33.7,2.3,66.7,6.9,98.9H615z M500,891.1c42.9-62.9,74.4-128.1,94.3-195.5H405.7C425.6,763,457.1,828.2,500,891.1z M304.5,304.5c15.3-61.3,38.3-119.6,69-174.8c-93.6,30.7-164.9,89-213.9,174.8H304.5z M159.5,695.5c49.1,85.9,120.4,144.2,213.9,174.8c-30.7-55.2-53.7-113.5-69-174.8H159.5z M120.4,598.9h165.6c-4.6-32.2-6.9-65.2-6.9-98.9c0-33.7,2.3-66.7,6.9-98.9H120.4c-9.2,42.9-13.8,75.9-13.8,98.9S111.2,556,120.4,598.9z M500,108.9c-42.9,62.9-74.4,128.1-94.3,195.5h188.6C574.4,237,542.9,171.8,500,108.9z M840.5,304.5c-49.1-85.9-120.4-144.2-213.9-174.8c30.7,55.2,53.7,113.5,69,174.8H840.5z M500,10c135,0,250.4,47.9,346.2,143.8S990,365,990,500s-47.9,250.4-143.8,346.2S635,990,500,990c-135,0-250.4-47.9-346.2-143.8S10,635,10,500s47.9-250.4,143.8-346.2S365,10,500,10z"/></g></g>
</svg>