<?xml version="1.0" encoding="utf-8"?>
<!-- Svg Vector Icons : http://www.onlinewebfonts.com/icon -->
<!DOCTYPE svg PUBLIC "-//W3C//DTD SVG 1.1//EN" "http://www.w3.org/Graphics/SVG/1.1/DTD/svg11.dtd">
<svg version="1.1" xmlns="http://www.w3.org/2000/svg" xmlns:xlink="http://www.w3.org/1999/xlink" x="0px" y="0px" viewBox="0 0 1000 1000" enable-background="new 0 0 1000 1000" xml:space="preserve">
<metadata> Svg Vector Icons : http://www.onlinewebfonts.com/icon </metadata>
<g><path d="M930.1,306.9"/><path d="M442.8,990c0,0,375.7-398.6,375.7-604.3C818.5,178.6,649.9,10,442.8,10C237.1,10,69.9,178.6,69.9,385.7c0,138.6,170,364.3,278.6,495.7L442.8,990L442.8,990z M442.8,258.6c68.6,0,124.3,57.1,124.3,127.1c0,65.7-55.7,122.9-124.3,122.9c-67.1,0-125.7-57.1-125.7-122.9C317.1,315.7,375.6,258.6,442.8,258.6L442.8,258.6z"/></g>
</svg>