<?xml version="1.0" encoding="utf-8"?>
<!-- Svg Vector Icons : http://www.onlinewebfonts.com/icon -->
<!DOCTYPE svg PUBLIC "-//W3C//DTD SVG 1.1//EN" "http://www.w3.org/Graphics/SVG/1.1/DTD/svg11.dtd">
<svg version="1.1" xmlns="http://www.w3.org/2000/svg" xmlns:xlink="http://www.w3.org/1999/xlink" x="0px" y="0px" viewBox="0 0 1000 1000" enable-background="new 0 0 1000 1000" xml:space="preserve">
<metadata> Svg Vector Icons : http://www.onlinewebfonts.com/icon </metadata>
<g><g><path d="M966.5,852.8l-324-324c-19.2-19.2-45.8-26.7-70.7-22.3c90.2-121.8,80.1-295.1-30.2-405.4c-121.5-121.5-319.1-121.5-440.5,0c-121.4,121.4-121.4,319,0,440.5C211.4,651.9,384.7,662,506.5,571.8c-4.3,24.9,3.1,51.4,22.3,70.7l324,324c31.4,31.4,82.3,31.4,113.7,0C997.9,935.1,997.8,884.2,966.5,852.8z M464.9,464.9c-79.1,79.1-207.9,79.1-287,0c-79.2-79.1-79.2-207.9,0-287c79.1-79.1,207.9-79.1,287,0C544,256.9,544,385.7,464.9,464.9z"/></g><g></g><g></g><g></g><g></g><g></g><g></g><g></g><g></g><g></g><g></g><g></g><g></g><g></g><g></g><g></g></g>
</svg>